<?xml version="1.0" encoding="UTF-8"?>
<svg version="1.1" xmlns="http://www.w3.org/2000/svg" width="500" height="500">
<path d="M0 0 C165 0 330 0 500 0 C500 165 500 330 500 500 C335 500 170 500 0 500 C0 335 0 170 0 0 Z " fill="#F9F9F9" transform="translate(0,0)"/>
<path d="M0 0 C0.66 0 1.32 0 2 0 C2.57161865 1.03833984 2.57161865 1.03833984 3.15478516 2.09765625 C11.2838849 16.84515957 19.54020131 31.49740347 28.07421875 46.015625 C28.82904541 47.30243164 28.82904541 47.30243164 29.59912109 48.61523438 C30.48856905 50.12937304 31.38169916 51.64135944 32.27978516 53.15039062 C35 57.77821124 35 57.77821124 35 60 C35.66 60 36.32 60 37 60 C37.33 59.01 37.66 58.02 38 57 C41 60.75 41 60.75 41 63 C43.71732943 60.56253011 45.32662616 57.92242525 47.1015625 54.74609375 C47.96007812 53.21758789 47.96007812 53.21758789 48.8359375 51.65820312 C49.72152344 50.06395508 49.72152344 50.06395508 50.625 48.4375 C51.223125 47.37080078 51.82125 46.30410156 52.4375 45.20507812 C55.29861856 40.14516482 55.29861856 40.14516482 58 35 C58.66 35 59.32 35 60 35 C61.96116191 38.46660387 63.918213 41.93549285 65.87158203 45.40649414 C66.53583661 46.58550562 67.20118601 47.76390101 67.86767578 48.94165039 C68.82876727 50.64044065 69.78552197 52.34168211 70.7421875 54.04296875 C71.3182373 55.06414795 71.89428711 56.08532715 72.48779297 57.13745117 C73.85054283 59.71708341 74.97829531 62.27033833 76 65 C76.66 65 77.32 65 78 65 C78.27295898 64.28046143 78.54591797 63.56092285 78.82714844 62.81958008 C79.98060771 60.0466198 81.29738687 57.5052063 82.765625 54.88671875 C83.31927734 53.89752441 83.87292969 52.90833008 84.44335938 51.88916016 C85.33764648 50.30433838 85.33764648 50.30433838 86.25 48.6875 C87.17522461 47.04080322 87.17522461 47.04080322 88.11914062 45.36083984 C93.05838018 36.59956968 98.09795715 27.89823747 103.20410156 19.2331543 C106.93441139 12.89062781 110.5142002 6.48013323 114 0 C114.66 0 115.32 0 116 0 C134.13476562 31.73583984 134.13476562 31.73583984 135.17492676 33.55613708 C135.85874711 34.75281255 136.54258492 35.94947805 137.22644043 37.14613342 C138.89876724 40.07252949 140.57079932 42.99909312 142.2421875 45.92602539 C145.37889534 51.41799779 148.51968655 56.90752099 151.671875 62.390625 C152.23616211 63.37361572 152.80044922 64.35660645 153.38183594 65.36938477 C154.43540264 67.20422491 155.49065537 69.0380983 156.54785156 70.87084961 C157.23572754 72.06979858 157.23572754 72.06979858 157.9375 73.29296875 C158.33839844 73.9893042 158.73929688 74.68563965 159.15234375 75.40307617 C160 77 160 77 160 78 C158.35 78 156.7 78 155 78 C152.62297035 73.85532805 150.24823407 69.70934623 147.875 65.5625 C147.33611649 64.62103622 147.33611649 64.62103622 146.78634644 63.66055298 C141.06936726 53.66810199 135.42919621 43.63577644 129.83105469 33.57617188 C126.18354593 27.04503054 122.44236999 20.58491355 118.48657227 14.23510742 C116 10.203819 116 10.203819 116 8 C115.34 8 114.68 8 114 8 C113.77570313 8.80179688 113.55140625 9.60359375 113.3203125 10.4296875 C111.63867994 14.97706075 109.32027429 18.94977107 106.875 23.125 C105.80044829 24.98157816 104.72624938 26.83836055 103.65234375 28.6953125 C103.07081543 29.69723633 102.48928711 30.69916016 101.89013672 31.73144531 C99.83206996 35.2903962 97.79046247 38.85840071 95.75390625 42.4296875 C95.39558716 43.05795441 95.03726807 43.68622131 94.66809082 44.33352661 C93.94737805 45.59745319 93.22673562 46.86141988 92.50616455 48.12542725 C90.79561885 51.1259407 89.08399669 54.12583109 87.37109375 57.125 C86.79286865 58.13820312 86.21464355 59.15140625 85.61889648 60.1953125 C84.54930448 62.04834717 83.43565552 63.87671374 82.27758789 65.67578125 C80.53358606 68.8485115 81.05139283 70.57042024 82 74 C82.97348627 76.28480253 82.97348627 76.28480253 84 78 C82.35 78 80.7 78 79 78 C78.53102295 77.17798096 78.0620459 76.35596191 77.57885742 75.5090332 C75.82929662 72.44302692 74.07924185 69.37730368 72.32885742 66.31176758 C71.57312701 64.98798654 70.81759043 63.66409483 70.06225586 62.34008789 C68.97301041 60.43085675 67.88305557 58.5220321 66.79296875 56.61328125 C66.45847214 56.02662186 66.12397552 55.43996246 65.77934265 54.83552551 C64.31184151 52.26731195 62.82716576 49.72256643 61.26293945 47.21166992 C60 45 60 45 60 43 C59.34 43 58.68 43 58 43 C57.66548828 44.22009766 57.66548828 44.22009766 57.32421875 45.46484375 C55.37409878 50.67091624 52.36417068 55.14575717 49.36914062 59.81054688 C46.67775854 64.02394923 46.67775854 64.02394923 46.1015625 68.859375 C47.16938151 71.40356985 48.54494497 73.65925929 50 76 C50 76.66 50 77.32 50 78 C48.35 78 46.7 78 45 78 C43.02 74.37 41.04 70.74 39 67 C36.01425235 69.98574765 34.37388959 72.70129135 32.37890625 76.35546875 C31.92386719 76.89816406 31.46882813 77.44085938 31 78 C29.68 78 28.36 78 27 78 C28.07011313 75.20124258 29.190725 72.66799721 30.6875 70.0625 C32.27882711 66.34940341 31.95083244 64.88177047 31 61 C29.64257507 58.04782005 29.64257507 58.04782005 27.859375 55.09765625 C27.20646484 53.97004883 26.55355469 52.84244141 25.88085938 51.68066406 C25.17066681 50.47455408 24.46037837 49.26850055 23.75 48.0625 C23.02828664 46.8218762 22.30759356 45.58065834 21.58789062 44.33886719 C20.11842255 41.80428049 18.64524892 39.2719027 17.16992188 36.74072266 C13.89365311 31.1071519 10.69741654 25.42862263 7.5 19.75 C6.42714458 17.84892377 5.35423425 15.94787852 4.28125 14.046875 C3.52072954 12.69797518 2.76026847 11.34904186 2 10 C1.34 10 0.68 10 0 10 C-1.3757446 11.85396832 -1.3757446 11.85396832 -2.73046875 14.30078125 C-3.55272949 15.71701782 -3.55272949 15.71701782 -4.39160156 17.16186523 C-4.98424805 18.20157471 -5.57689453 19.24128418 -6.1875 20.3125 C-6.80463867 21.38250244 -7.42177734 22.45250488 -8.05761719 23.55493164 C-12.700929 31.63862171 -17.23371698 39.78221833 -21.75 47.9375 C-23.60021974 51.26908385 -25.45077693 54.6004796 -27.30175781 57.93164062 C-28.39032459 59.89844731 -29.47350872 61.86824851 -30.54980469 63.84179688 C-31.89158791 66.30006729 -33.25487352 68.74495157 -34.625 71.1875 C-35.19105957 72.24795532 -35.19105957 72.24795532 -35.76855469 73.32983398 C-36.8515625 75.23046875 -36.8515625 75.23046875 -39 78 C-41.63427734 78.1730957 -41.63427734 78.1730957 -44 78 C-40.14593515 70.06531378 -36.00716683 62.3930283 -31.5 54.8125 C-26.47591684 46.28676274 -21.56228175 37.70952743 -16.75 29.0625 C-12.62191848 21.66529989 -8.49214727 14.27006256 -4.25 6.9375 C-3.84362305 6.22279541 -3.43724609 5.50809082 -3.01855469 4.77172852 C-2.06958793 3.14636619 -1.04301234 1.5666735 0 0 Z " fill="#6B7960" transform="translate(192,147)"/>
<path d="M0 0 C1.134375 0.020625 2.26875 0.04125 3.4375 0.0625 C5.25981465 4.17312971 6.2286808 8.31700928 7.09375 12.70703125 C7.24154907 13.43564865 7.38934814 14.16426605 7.54162598 14.91496277 C8.0113678 17.23410369 8.47478865 19.55444709 8.9375 21.875 C9.40121377 24.18462338 9.86631481 26.49395301 10.33337402 28.80290222 C10.62273559 30.23501129 10.91007 31.66753213 11.19494629 33.10054016 C11.88555163 36.53427055 12.64807662 39.92593593 13.53320312 43.31518555 C14.46236738 47.16554788 14.60088789 50.1411907 14.4375 54.0625 C12.1275 54.0625 9.8175 54.0625 7.4375 54.0625 C6.7775 49.7725 6.1175 45.4825 5.4375 41.0625 C1.8075 40.7325 -1.8225 40.4025 -5.5625 40.0625 C-5.7790625 41.856875 -5.7790625 41.856875 -6 43.6875 C-6.43289343 47.1630158 -6.95866256 50.61200034 -7.5625 54.0625 C-9.8725 54.0625 -12.1825 54.0625 -14.5625 54.0625 C-13.92292812 47.46921712 -12.87075792 41.07838766 -11.53125 34.59375 C-11.33527222 33.63223022 -11.13929443 32.67071045 -10.93737793 31.68005371 C-10.5258199 29.66618056 -10.11225942 27.65271568 -9.69677734 25.63964844 C-9.05885187 22.54480138 -8.42942521 19.44830669 -7.80078125 16.3515625 C-7.39894109 14.39052174 -6.996615 12.42958048 -6.59375 10.46875 C-6.40518433 9.53969849 -6.21661865 8.61064697 -6.02233887 7.65344238 C-5.84545532 6.80165405 -5.66857178 5.94986572 -5.48632812 5.07226562 C-5.33168091 4.31997681 -5.17703369 3.56768799 -5.0177002 2.79260254 C-4.16273783 -0.45689642 -3.62569539 0.06360869 0 0 Z " fill="#404040" transform="translate(402.5625,249.9375)"/>
<path d="M0 0 C2.64 0 5.28 0 8 0 C11.01384314 12.92472037 14.00570233 25.85482337 16.875 38.8125 C17.08987061 39.76519775 17.30474121 40.71789551 17.52612305 41.69946289 C17.72117432 42.58883545 17.91622559 43.47820801 18.1171875 44.39453125 C18.28847168 45.16643799 18.45975586 45.93834473 18.63623047 46.73364258 C19.03043098 49.18959113 19.06193724 51.51675523 19 54 C16.69 54 14.38 54 12 54 C11.65980848 52.60582227 11.32818221 51.20955342 11 49.8125 C10.814375 49.03519531 10.62875 48.25789063 10.4375 47.45703125 C10 45 10 45 10 40 C4.555 40.495 4.555 40.495 -1 41 C-1.99 45.29 -2.98 49.58 -4 54 C-6.31 54 -8.62 54 -11 54 C-9.17396922 43.77125848 -7.08025376 33.62144013 -4.84814453 23.47412109 C-3.13377882 15.66742455 -1.5245681 7.84594805 0 0 Z " fill="#404040" transform="translate(246,250)"/>
<path d="M0 0 C2.64 0 5.28 0 8 0 C9.08679081 5.11830949 10.17104963 10.23714716 11.25317383 15.35644531 C11.62002661 17.0903091 11.98751761 18.82403799 12.35571289 20.55761719 C14.7174564 31.68004364 16.96398459 42.81314506 19 54 C16.69 54 14.38 54 12 54 C11.01 49.71 10.02 45.42 9 41 C5.37 40.67 1.74 40.34 -2 40 C-2.144375 41.381875 -2.28875 42.76375 -2.4375 44.1875 C-2.80359143 47.50324238 -3.26438893 50.74229382 -4 54 C-6.31 54 -8.62 54 -11 54 C-9.55912335 44.95689392 -7.86262203 35.9779386 -6.0625 27 C-5.81048828 25.72382813 -5.55847656 24.44765625 -5.29882812 23.1328125 C-3.74530689 15.36123312 -2.00526229 7.66765179 0 0 Z " fill="#3E3E3E" transform="translate(131,250)"/>
<path d="M0 0 C1.12148437 -0.01675781 2.24296875 -0.03351563 3.3984375 -0.05078125 C6.94956435 0.34904296 8.78090147 1.1907924 11.625 3.3125 C15.23937655 8.42248064 14.94527458 13.31031716 14.625 19.3125 C12.315 19.3125 10.005 19.3125 7.625 19.3125 C7.57601562 18.61382812 7.52703125 17.91515625 7.4765625 17.1953125 C7.40179688 16.28523438 7.32703125 15.37515625 7.25 14.4375 C7.18039063 13.53257812 7.11078125 12.62765625 7.0390625 11.6953125 C6.82931868 9.13308097 6.82931868 9.13308097 4.625 7.3125 C2.71678939 6.95736621 2.71678939 6.95736621 0.625 7 C-0.426875 6.97486328 -0.426875 6.97486328 -1.5 6.94921875 C-2.11875 7.06910156 -2.7375 7.18898438 -3.375 7.3125 C-5.76528321 10.89792481 -5.68124779 13.50588566 -5.67578125 17.6484375 C-5.68006638 18.36480377 -5.6843515 19.08117004 -5.68876648 19.81924438 C-5.69450519 21.3339126 -5.6950134 22.84860838 -5.69067383 24.36328125 C-5.68752068 26.67235807 -5.71095269 28.9801447 -5.73632812 31.2890625 C-5.73860198 32.76301922 -5.73930421 34.23697938 -5.73828125 35.7109375 C-5.747491 36.39755463 -5.75670074 37.08417175 -5.76618958 37.79159546 C-5.72485505 42.10916492 -5.10720803 44.9251871 -2.375 48.3125 C0.625 49.14583333 0.625 49.14583333 3.625 48.3125 C7.28946729 44.39531083 7.30162134 39.43080359 7.625 34.3125 C9.935 34.3125 12.245 34.3125 14.625 34.3125 C15.12933761 41.1490765 14.78398521 46.63736299 10.625 52.3125 C5.53881139 55.70329241 -0.44450735 54.99304834 -6.375 54.3125 C-10.42532113 51.58632232 -11.90050867 48.87023404 -13.375 44.3125 C-13.58627939 41.64398805 -13.70266497 39.08212235 -13.7109375 36.4140625 C-13.7175943 35.66087738 -13.7242511 34.90769226 -13.73110962 34.13168335 C-13.74120262 32.54321726 -13.74592768 30.95470906 -13.74560547 29.36621094 C-13.74997421 26.95175394 -13.78631331 24.53913353 -13.82421875 22.125 C-13.8300888 20.57552703 -13.83405693 19.02604545 -13.8359375 17.4765625 C-13.85030853 16.76279449 -13.86467957 16.04902649 -13.87948608 15.31362915 C-13.82980124 9.7901549 -12.44562686 6.74306519 -9.375 2.3125 C-5.84075288 -0.04366475 -4.18855898 0.0143772 0 0 Z " fill="#3E3E3E" transform="translate(205.375,249.6875)"/>
<path d="M0 0 C4.09621455 0.01950578 6.80034669 0.08362224 10 2.75 C13.57230015 6.80504341 13.41152357 9.02772727 13.3125 14.375 C11.3325 14.705 9.3525 15.035 7.3125 15.375 C6.8484375 13.6734375 6.8484375 13.6734375 6.375 11.9375 C5.68325469 8.58724901 5.68325469 8.58724901 4.3125 7.375 C1.64191149 7.23384839 -1.01182238 7.33252893 -3.6875 7.375 C-4.52937071 10.06898628 -4.96440149 11.62165875 -4.6875 14.375 C-1.30895955 20.0208666 4.2928919 24.2625632 9.296875 28.41796875 C12.41393756 31.44441903 14.1212971 33.96534723 14.7109375 38.3125 C14.70320313 39.323125 14.69546875 40.33375 14.6875 41.375 C14.69523437 42.385625 14.70296875 43.39625 14.7109375 44.4375 C14.25122665 47.82674077 13.38864404 49.66943672 11.3125 52.375 C6.71413526 55.62846666 0.67139825 55.1007605 -4.6875 54.375 C-7.8125 52.125 -7.8125 52.125 -9.6875 49.375 C-10.120625 48.75625 -10.55375 48.1375 -11 47.5 C-11.99052342 44.43838216 -11.81020626 41.56536265 -11.6875 38.375 C-8.7175 37.88 -8.7175 37.88 -5.6875 37.375 C-5.38005859 38.33212891 -5.38005859 38.33212891 -5.06640625 39.30859375 C-4.79699219 40.13488281 -4.52757812 40.96117187 -4.25 41.8125 C-3.98316406 42.63621094 -3.71632813 43.45992188 -3.44140625 44.30859375 C-2.86594506 46.33719588 -2.86594506 46.33719588 -1.6875 47.375 C-0.34002916 47.60575082 1.01627565 47.78653063 2.375 47.9375 C3.674375 48.081875 4.97375 48.22625 6.3125 48.375 C6.96934402 44.53611162 7.10511818 41.20276586 6.3125 37.375 C3.46779332 33.44974582 0.04209 30.44773684 -3.6875 27.375 C-4.32429688 26.8490625 -4.96109375 26.323125 -5.6171875 25.78125 C-6.13539063 25.3584375 -6.65359375 24.935625 -7.1875 24.5 C-10.46308916 21.71574921 -11.50093683 19.80269918 -12.05859375 15.53515625 C-12.2348734 7.31222927 -12.2348734 7.31222927 -10.6015625 4.515625 C-9.25 3.1875 -9.25 3.1875 -6.6875 1.375 C-4.90307894 -0.40942106 -2.41735845 0.0773079 0 0 Z " fill="#414141" transform="translate(292.6875,249.625)"/>
<path d="M0 0 C2.64 0 5.28 0 8 0 C8 15.84 8 31.68 8 48 C12.62 48 17.24 48 22 48 C22 49.98 22 51.96 22 54 C14.74 54 7.48 54 0 54 C0 36.18 0 18.36 0 0 Z " fill="#454545" transform="translate(85,250)"/>
<path d="M0 0 C8.25 0 16.5 0 25 0 C25 1.65 25 3.3 25 5 C22.03 5 19.06 5 16 5 C16 21.17 16 37.34 16 54 C13.69 54 11.38 54 9 54 C9 38.16 9 22.32 9 6 C6.03 6 3.06 6 0 6 C0 4.02 0 2.04 0 0 Z " fill="#3A3A3A" transform="translate(349,250)"/>
<path d="M0 0 C2.31 0 4.62 0 7 0 C7 17.82 7 35.64 7 54 C4.69 54 2.38 54 0 54 C0 36.18 0 18.36 0 0 Z " fill="#393939" transform="translate(325,250)"/>
<path d="M0 0 C3.46145669 0.86536417 4.94931405 2.62635769 6.9375 5.484375 C7.6821324 9.45574781 7.31016878 10.92537183 5.0625 14.296875 C2.37052791 17.06802273 1.487107 17.4117854 -2.375 17.921875 C-6.0625 17.484375 -6.0625 17.484375 -9 14.859375 C-11.25068265 11.17643975 -11.95676216 9.68740714 -11.0625 5.484375 C-7.96567477 1.03268873 -5.27078558 -0.35937174 0 0 Z " fill="#F2F2F2" transform="translate(280.0625,328.515625)"/>
<path d="M0 0 C6.8359375 -0.1953125 6.8359375 -0.1953125 9 0 C11 2 11 2 11.25 5 C11 8 11 8 9 10 C5.375 10.125 5.375 10.125 2 10 C2 12.31 2 14.62 2 17 C1.34 17 0.68 17 0 17 C0 11.39 0 5.78 0 0 Z " fill="#5C5C5C" transform="translate(152,329)"/>
<path d="M0 0 C2.82463199 2.82463199 2.96242264 6.01620217 3.625 9.8125 C3.7590625 10.52470703 3.893125 11.23691406 4.03125 11.97070312 C4.70498625 15.6865648 5.1632621 19.22270875 5 23 C2.03 23 -0.94 23 -4 23 C-2.96324187 15.24637268 -1.83622588 7.60722152 0 0 Z " fill="#EBEBEB" transform="translate(402,262)"/>
<path d="M0 0 C0.33 0 0.66 0 1 0 C1.50688605 2.54046458 2.00566874 5.08208876 2.5 7.625 C2.64308594 8.33785156 2.78617188 9.05070312 2.93359375 9.78515625 C3.73049426 13.92144935 4.16034056 17.76433679 4 22 C1.36 22 -1.28 22 -4 22 C-2.38297872 2.38297872 -2.38297872 2.38297872 0 0 Z " fill="#ECECEC" transform="translate(250,263)"/>
<path d="M0 0 C0.66 0.33 1.32 0.66 2 1 C2.64591111 3.59549602 3.1713093 6.12044572 3.625 8.75 C3.7590625 9.46671875 3.893125 10.1834375 4.03125 10.921875 C4.70336645 14.65280711 5.16421373 18.20815577 5 22 C2.36 22 -0.28 22 -3 22 C-2.45298368 14.55769906 -1.45801591 7.31839056 0 0 Z " fill="#EEEEEE" transform="translate(134,263)"/>
<path d="M0 0 C2.5 1.875 2.5 1.875 4 4 C4 4.66 4 5.32 4 6 C3.34 6 2.68 6 2 6 C1.401875 5.34 0.80375 4.68 0.1875 4 C-1.83281082 1.79078512 -1.83281082 1.79078512 -4.5625 1.5625 C-6.98858193 1.85312925 -6.98858193 1.85312925 -8.8125 3.0625 C-10.646921 6.05550269 -10.31107576 8.57816663 -10 12 C-8.06268472 14.36410488 -8.06268472 14.36410488 -4.5625 14.3125 C-1.06447604 14.3291877 -1.06447604 14.3291877 0.9375 12.5 C1.288125 12.005 1.63875 11.51 2 11 C-0.31 11 -2.62 11 -5 11 C-5 10.34 -5 9.68 -5 9 C-2.03 9 0.94 9 4 9 C3.68306247 11.93167219 3.36774166 13.58982661 1.375 15.8125 C-2.01720722 17.50860361 -4.25506845 17.52560443 -8 17 C-11.69186542 14.40783917 -12.82883761 12.95850936 -13.625 8.5 C-13 5 -13 5 -11 2.0625 C-6.84919686 -0.79117716 -4.9698922 -0.7099846 0 0 Z " fill="#505050" transform="translate(254,329)"/>
<path d="M0 0 C3.93550277 3.93550277 6.17303793 7.28839656 9 12 C9.33 8.37 9.66 4.74 10 1 C10.66 1 11.32 1 12 1 C12 6.94 12 12.88 12 19 C8.40360547 15.40360547 5.86284125 12.13521513 3 8 C2.67 11.3 2.34 14.6 2 18 C1.34 18 0.68 18 0 18 C0 12.06 0 6.12 0 0 Z " fill="#5D5D5D" transform="translate(298,328)"/>
<path d="M0 0 C2.60797062 3.47729416 4.06772231 6.16554343 5.6875 10.125 C6.34298828 11.70667969 6.34298828 11.70667969 7.01171875 13.3203125 C8 16 8 16 8 18 C7.34 18 6.68 18 6 18 C5.34 16.68 4.68 15.36 4 14 C1.69 14 -0.62 14 -3 14 C-3.66 15.32 -4.32 16.64 -5 18 C-5.66 17.67 -6.32 17.34 -7 17 C-4.69 11.39 -2.38 5.78 0 0 Z " fill="#565656" transform="translate(341,328)"/>
<path d="M0 0 C2.60797062 3.47729416 4.06772231 6.16554343 5.6875 10.125 C6.34298828 11.70667969 6.34298828 11.70667969 7.01171875 13.3203125 C8 16 8 16 8 18 C7.34 18 6.68 18 6 18 C5.34 16.68 4.68 15.36 4 14 C1.69 14 -0.62 14 -3 14 C-3.66 15.32 -4.32 16.64 -5 18 C-5.66 17.67 -6.32 17.34 -7 17 C-4.69 11.39 -2.38 5.78 0 0 Z " fill="#565656" transform="translate(223,328)"/>
<path d="M0 0 C0.66 0 1.32 0 2 0 C4.31 5.61 6.62 11.22 9 17 C8.01 17 7.02 17 6 17 C5.67 15.35 5.34 13.7 5 12 C2.36 12 -0.28 12 -3 12 C-3.33 13.65 -3.66 15.3 -4 17 C-4.66 17 -5.32 17 -6 17 C-5.34496718 12.94180817 -4.05440879 9.46028718 -2.4375 5.6875 C-1.75494141 4.08455078 -1.75494141 4.08455078 -1.05859375 2.44921875 C-0.53458984 1.23685547 -0.53458984 1.23685547 0 0 Z " fill="#535353" transform="translate(179,329)"/>
<path d="M0 0 C3.46145669 0.86536417 4.94931405 2.62635769 6.9375 5.484375 C7.6821324 9.45574781 7.31016878 10.92537183 5.0625 14.296875 C2.37052791 17.06802273 1.487107 17.4117854 -2.375 17.921875 C-6.0625 17.484375 -6.0625 17.484375 -9 14.859375 C-11.25068265 11.17643975 -11.95676216 9.68740714 -11.0625 5.484375 C-7.96567477 1.03268873 -5.27078558 -0.35937174 0 0 Z M-6.8125 3.109375 C-9.32147534 5.31451649 -9.32147534 5.31451649 -9.5625 8.484375 C-9.00359015 11.83783408 -8.67571414 13.29264701 -6.0625 15.484375 C-2.10995604 16.05929049 0.01691451 16.09809866 3.375 13.859375 C5.42241197 10.7473088 5.62301032 9.14043004 4.9375 5.484375 C2.79079312 3.00028799 2.79079312 3.00028799 -0.0625 1.484375 C-4.02092116 1.14522213 -4.02092116 1.14522213 -6.8125 3.109375 Z " fill="#525252" transform="translate(280.0625,328.515625)"/>
<path d="M0 0 C2.31 0.33 4.62 0.66 7 1 C7 2.98 7 4.96 7 7 C4.69 7 2.38 7 0 7 C0 4.69 0 2.38 0 0 Z " fill="#E7E7E7" transform="translate(154,330)"/>
<path d="M0 0 C3.3 0 6.6 0 10 0 C10 0.66 10 1.32 10 2 C8.68 2 7.36 2 6 2 C6 6.95 6 11.9 6 17 C5.34 17 4.68 17 4 17 C4 11.72 4 6.44 4 1 C2.68 0.67 1.36 0.34 0 0 Z " fill="#585858" transform="translate(197,329)"/>
<path d="M0 0 C3 3 3 3 3.07421875 6.57421875 C2.96149977 7.94673808 2.83199844 9.31796172 2.6875 10.6875 C2.62626953 11.38939453 2.56503906 12.09128906 2.50195312 12.81445312 C2.34897376 14.5442967 2.17637398 16.27238497 2 18 C1.34 18 0.68 18 0 18 C0 12.06 0 6.12 0 0 Z " fill="#525252" transform="translate(298,328)"/>
<path d="M0 0 C2.97 0 5.94 0 9 0 C8.67226629 3.03153686 8.35865103 4.61573103 6.25 6.875 C3.40525065 8.29737468 1.98383376 7.91172698 -1 7 C-1 6.67 -1 6.34 -1 6 C0.134375 5.71125 1.26875 5.4225 2.4375 5.125 C3.613125 4.75375 4.78875 4.3825 6 4 C6.33 3.34 6.66 2.68 7 2 C4.69 2 2.38 2 0 2 C0 1.34 0 0.68 0 0 Z " fill="#636363" transform="translate(249,338)"/>
<path d="M0 0 C0.66 0 1.32 0 2 0 C2.66 2.31 3.32 4.62 4 7 C2.02 7 0.04 7 -2 7 C-1.34 4.69 -0.68 2.38 0 0 Z " fill="#DCDCDC" transform="translate(179,333)"/>
<path d="M0 0 C2.5654594 2.5654594 2.54046087 4.47686668 3 8 C1.35 8 -0.3 8 -2 8 C-1.125 2.25 -1.125 2.25 0 0 Z " fill="#DFDFDF" transform="translate(341,332)"/>
<path d="M0 0 C2.5654594 2.5654594 2.54046087 4.47686668 3 8 C1.35 8 -0.3 8 -2 8 C-1.125 2.25 -1.125 2.25 0 0 Z " fill="#DFDFDF" transform="translate(223,332)"/>
<path d="M0 0 C1.875 0.3125 1.875 0.3125 4 1 C6.29013653 4.4352048 6.17842973 5.985331 6 10 C5.34 10 4.68 10 4 10 C3.566875 8.3603125 3.566875 8.3603125 3.125 6.6875 C2.18106796 2.95986155 2.18106796 2.95986155 0 0 Z " fill="#585858" transform="translate(281,330)"/>
<path d="M0 0 C2.6855594 2.6855594 3.06049974 5.37621328 4 9 C3.34 9 2.68 9 2 9 C1.71125 8.38125 1.4225 7.7625 1.125 7.125 C0.06279958 4.86674235 0.06279958 4.86674235 -2 3 C-1.34 2.01 -0.68 1.02 0 0 Z " fill="#575757" transform="translate(345,337)"/>
<path d="M0 0 C2.6855594 2.6855594 3.06049974 5.37621328 4 9 C3.34 9 2.68 9 2 9 C1.71125 8.38125 1.4225 7.7625 1.125 7.125 C0.06279958 4.86674235 0.06279958 4.86674235 -2 3 C-1.34 2.01 -0.68 1.02 0 0 Z " fill="#575757" transform="translate(227,337)"/>
<path d="M0 0 C2.97 0.495 2.97 0.495 6 1 C6 1.33 6 1.66 6 2 C4.824375 2.12375 4.824375 2.12375 3.625 2.25 C0.85250896 2.72806339 0.85250896 2.72806339 -0.3125 5.0625 C-0.6528125 6.0215625 -0.6528125 6.0215625 -1 7 C-1.66 6.67 -2.32 6.34 -3 6 C-2.01 4.02 -1.02 2.04 0 0 Z " fill="#484848" transform="translate(337,339)"/>
<path d="M0 0 C2.97 0.495 2.97 0.495 6 1 C6 1.33 6 1.66 6 2 C4.824375 2.12375 4.824375 2.12375 3.625 2.25 C0.85250896 2.72806339 0.85250896 2.72806339 -0.3125 5.0625 C-0.6528125 6.0215625 -0.6528125 6.0215625 -1 7 C-1.66 6.67 -2.32 6.34 -3 6 C-2.01 4.02 -1.02 2.04 0 0 Z " fill="#484848" transform="translate(219,339)"/>
</svg>
