<svg xmlns="http://www.w3.org/2000/svg" xmlns:xlink="http://www.w3.org/1999/xlink" width="300" zoomAndPan="magnify" viewBox="0 0 224.87999 67.499998" height="90" preserveAspectRatio="xMidYMid meet" version="1.0"><defs><g/><clipPath id="4f362f5642"><path d="M 147.3125 9 L 200.914062 9 L 200.914062 58.09375 L 147.3125 58.09375 Z M 147.3125 9 " clip-rule="nonzero"/></clipPath></defs><g clip-path="url(#4f362f5642)"><path fill="#737373" d="M 200.757812 35.125 C 200.738281 35.105469 194.773438 29.136719 193.96875 28.332031 L 193.96875 16.132812 C 193.96875 15.527344 193.476562 15.035156 192.871094 15.035156 L 187.425781 15.035156 C 186.816406 15.035156 186.324219 15.527344 186.324219 16.132812 L 186.324219 20.6875 L 175.03125 9.394531 C 174.597656 8.960938 173.898438 8.96875 173.476562 9.394531 C 172.703125 10.171875 149.167969 33.808594 147.746094 35.234375 C 147.316406 35.664062 147.320312 36.363281 147.75 36.789062 C 148.179688 37.21875 148.875 37.21875 149.304688 36.785156 L 152.117188 33.964844 L 152.117188 56.933594 C 152.117188 57.539062 152.609375 58.03125 153.214844 58.03125 L 168.382812 58.03125 C 168.992188 58.03125 169.484375 57.539062 169.484375 56.933594 L 169.484375 40.273438 L 179.023438 40.273438 L 179.023438 56.933594 C 179.023438 57.539062 179.515625 58.03125 180.121094 58.03125 L 195.289062 58.03125 C 195.898438 58.03125 196.390625 57.539062 196.390625 56.933594 L 196.390625 33.863281 L 199.203125 36.679688 C 199.632812 37.109375 200.328125 37.109375 200.757812 36.679688 C 201.1875 36.25 201.1875 35.554688 200.757812 35.125 Z M 181.222656 55.835938 L 181.222656 39.171875 C 181.222656 38.566406 180.730469 38.074219 180.121094 38.074219 L 168.382812 38.074219 C 167.777344 38.074219 167.285156 38.566406 167.285156 39.171875 L 167.285156 55.835938 L 154.316406 55.835938 L 154.316406 31.753906 L 174.253906 11.726562 L 194.191406 31.664062 L 194.191406 55.835938 Z M 181.222656 55.835938 " fill-opacity="1" fill-rule="nonzero"/></g><g fill="#000000" fill-opacity="1"><g transform="translate(18.338027, 40.574446)"><g><path d="M 1.28125 0 L 1.28125 -0.328125 C 1.664062 -0.441406 1.929688 -0.691406 2.078125 -1.078125 C 2.222656 -1.460938 2.296875 -2.171875 2.296875 -3.203125 L 2.296875 -14.421875 C 2.296875 -15.460938 2.222656 -16.171875 2.078125 -16.546875 C 1.929688 -16.921875 1.664062 -17.171875 1.28125 -17.296875 L 1.28125 -17.625 L 5.359375 -17.625 L 5.359375 -17.296875 C 4.972656 -17.171875 4.707031 -16.921875 4.5625 -16.546875 C 4.425781 -16.171875 4.359375 -15.460938 4.359375 -14.421875 L 4.359375 -1.53125 C 4.359375 -0.78125 4.734375 -0.40625 5.484375 -0.40625 L 8.484375 -0.40625 C 9.691406 -0.40625 10.617188 -0.582031 11.265625 -0.9375 C 11.910156 -1.300781 12.453125 -1.953125 12.890625 -2.890625 L 13.171875 -2.84375 L 12.984375 0 Z M 1.28125 0 "/></g></g></g><g fill="#000000" fill-opacity="1"><g transform="translate(32.006925, 40.574446)"><g><path d="M 10.546875 0 C 10.046875 0 9.796875 -0.25 9.796875 -0.75 L 9.796875 -5.28125 C 9.546875 -4.257812 9.148438 -3.328125 8.609375 -2.484375 C 8.066406 -1.648438 7.4375 -0.984375 6.71875 -0.484375 C 6.007812 0.00390625 5.238281 0.25 4.40625 0.25 C 3.78125 0.25 3.195312 0.125 2.65625 -0.125 C 2.125 -0.375 1.691406 -0.742188 1.359375 -1.234375 C 1.035156 -1.722656 0.875 -2.328125 0.875 -3.046875 C 0.875 -3.921875 1.132812 -4.632812 1.65625 -5.1875 C 2.175781 -5.738281 2.867188 -6.191406 3.734375 -6.546875 C 4.597656 -6.898438 5.523438 -7.207031 6.515625 -7.46875 L 9.796875 -8.359375 C 9.722656 -9.578125 9.382812 -10.476562 8.78125 -11.0625 C 8.175781 -11.644531 7.335938 -11.9375 6.265625 -11.9375 C 5.515625 -11.9375 4.78125 -11.753906 4.0625 -11.390625 C 3.351562 -11.023438 2.675781 -10.457031 2.03125 -9.6875 L 1.8125 -9.890625 C 2.53125 -10.785156 3.347656 -11.488281 4.265625 -12 C 5.179688 -12.507812 6.1875 -12.765625 7.28125 -12.765625 C 8.800781 -12.765625 9.921875 -12.363281 10.640625 -11.5625 C 11.367188 -10.769531 11.734375 -9.660156 11.734375 -8.234375 L 11.734375 -3.203125 C 11.734375 -2.171875 11.800781 -1.460938 11.9375 -1.078125 C 12.082031 -0.691406 12.347656 -0.441406 12.734375 -0.328125 L 12.734375 0 Z M 2.765625 -3.75 C 2.765625 -2.925781 3.007812 -2.300781 3.5 -1.875 C 4 -1.445312 4.613281 -1.234375 5.34375 -1.234375 C 6.007812 -1.234375 6.613281 -1.421875 7.15625 -1.796875 C 7.707031 -2.171875 8.175781 -2.660156 8.5625 -3.265625 C 8.945312 -3.867188 9.25 -4.523438 9.46875 -5.234375 C 9.6875 -5.941406 9.796875 -6.625 9.796875 -7.28125 L 9.796875 -8.03125 L 6.625 -7.171875 C 6 -7.003906 5.390625 -6.78125 4.796875 -6.5 C 4.203125 -6.226562 3.710938 -5.875 3.328125 -5.4375 C 2.953125 -5 2.765625 -4.4375 2.765625 -3.75 Z M 2.765625 -3.75 "/></g></g></g><g fill="#000000" fill-opacity="1"><g transform="translate(45.348576, 40.574446)"><g/></g></g><g fill="#000000" fill-opacity="1"><g transform="translate(50.634891, 40.574446)"><g><path d="M 10.796875 0.25 C 8.867188 0.25 7.195312 -0.09375 5.78125 -0.78125 C 4.363281 -1.46875 3.265625 -2.460938 2.484375 -3.765625 C 1.703125 -5.066406 1.3125 -6.628906 1.3125 -8.453125 C 1.3125 -9.796875 1.550781 -11.035156 2.03125 -12.171875 C 2.519531 -13.304688 3.210938 -14.296875 4.109375 -15.140625 C 5.015625 -15.984375 6.082031 -16.632812 7.3125 -17.09375 C 8.539062 -17.5625 9.894531 -17.796875 11.375 -17.796875 C 12.09375 -17.796875 12.828125 -17.734375 13.578125 -17.609375 C 14.328125 -17.484375 15.007812 -17.328125 15.625 -17.140625 C 16.25 -16.953125 16.722656 -16.75 17.046875 -16.53125 L 17.140625 -13.546875 L 16.890625 -13.484375 C 16.398438 -14.628906 15.585938 -15.550781 14.453125 -16.25 C 13.328125 -16.957031 12.015625 -17.3125 10.515625 -17.3125 C 9.191406 -17.3125 7.992188 -17.019531 6.921875 -16.4375 C 5.847656 -15.851562 4.992188 -14.976562 4.359375 -13.8125 C 3.734375 -12.65625 3.421875 -11.222656 3.421875 -9.515625 C 3.421875 -8.335938 3.59375 -7.195312 3.9375 -6.09375 C 4.28125 -4.988281 4.796875 -3.992188 5.484375 -3.109375 C 6.171875 -2.222656 7.019531 -1.523438 8.03125 -1.015625 C 9.039062 -0.503906 10.195312 -0.25 11.5 -0.25 C 12.863281 -0.25 14.050781 -0.597656 15.0625 -1.296875 C 16.082031 -2.003906 16.832031 -3.039062 17.3125 -4.40625 L 17.59375 -4.375 L 17.1875 -1.109375 C 16.601562 -0.785156 15.742188 -0.476562 14.609375 -0.1875 C 13.472656 0.101562 12.203125 0.25 10.796875 0.25 Z M 10.796875 0.25 "/></g></g></g><g fill="#000000" fill-opacity="1"><g transform="translate(69.288032, 40.574446)"><g><path d="M 10.546875 0 C 10.046875 0 9.796875 -0.25 9.796875 -0.75 L 9.796875 -5.28125 C 9.546875 -4.257812 9.148438 -3.328125 8.609375 -2.484375 C 8.066406 -1.648438 7.4375 -0.984375 6.71875 -0.484375 C 6.007812 0.00390625 5.238281 0.25 4.40625 0.25 C 3.78125 0.25 3.195312 0.125 2.65625 -0.125 C 2.125 -0.375 1.691406 -0.742188 1.359375 -1.234375 C 1.035156 -1.722656 0.875 -2.328125 0.875 -3.046875 C 0.875 -3.921875 1.132812 -4.632812 1.65625 -5.1875 C 2.175781 -5.738281 2.867188 -6.191406 3.734375 -6.546875 C 4.597656 -6.898438 5.523438 -7.207031 6.515625 -7.46875 L 9.796875 -8.359375 C 9.722656 -9.578125 9.382812 -10.476562 8.78125 -11.0625 C 8.175781 -11.644531 7.335938 -11.9375 6.265625 -11.9375 C 5.515625 -11.9375 4.78125 -11.753906 4.0625 -11.390625 C 3.351562 -11.023438 2.675781 -10.457031 2.03125 -9.6875 L 1.8125 -9.890625 C 2.53125 -10.785156 3.347656 -11.488281 4.265625 -12 C 5.179688 -12.507812 6.1875 -12.765625 7.28125 -12.765625 C 8.800781 -12.765625 9.921875 -12.363281 10.640625 -11.5625 C 11.367188 -10.769531 11.734375 -9.660156 11.734375 -8.234375 L 11.734375 -3.203125 C 11.734375 -2.171875 11.800781 -1.460938 11.9375 -1.078125 C 12.082031 -0.691406 12.347656 -0.441406 12.734375 -0.328125 L 12.734375 0 Z M 2.765625 -3.75 C 2.765625 -2.925781 3.007812 -2.300781 3.5 -1.875 C 4 -1.445312 4.613281 -1.234375 5.34375 -1.234375 C 6.007812 -1.234375 6.613281 -1.421875 7.15625 -1.796875 C 7.707031 -2.171875 8.175781 -2.660156 8.5625 -3.265625 C 8.945312 -3.867188 9.25 -4.523438 9.46875 -5.234375 C 9.6875 -5.941406 9.796875 -6.625 9.796875 -7.28125 L 9.796875 -8.03125 L 6.625 -7.171875 C 6 -7.003906 5.390625 -6.78125 4.796875 -6.5 C 4.203125 -6.226562 3.710938 -5.875 3.328125 -5.4375 C 2.953125 -5 2.765625 -4.4375 2.765625 -3.75 Z M 2.765625 -3.75 "/></g></g></g><g fill="#000000" fill-opacity="1"><g transform="translate(82.856291, 40.574446)"><g><path d="M 5.6875 0.21875 C 4.675781 0.21875 3.765625 0.09375 2.953125 -0.15625 C 2.140625 -0.40625 1.523438 -0.664062 1.109375 -0.9375 L 0.875 -3.984375 L 1.109375 -4.03125 C 1.640625 -2.832031 2.34375 -1.894531 3.21875 -1.21875 C 4.09375 -0.539062 5.101562 -0.191406 6.25 -0.171875 C 7.03125 -0.171875 7.675781 -0.382812 8.1875 -0.8125 C 8.707031 -1.238281 8.96875 -1.804688 8.96875 -2.515625 C 8.96875 -3.117188 8.789062 -3.601562 8.4375 -3.96875 C 8.09375 -4.34375 7.640625 -4.644531 7.078125 -4.875 C 6.523438 -5.113281 5.921875 -5.332031 5.265625 -5.53125 C 4.472656 -5.789062 3.765625 -6.054688 3.140625 -6.328125 C 2.523438 -6.609375 2.039062 -6.972656 1.6875 -7.421875 C 1.332031 -7.878906 1.15625 -8.484375 1.15625 -9.234375 C 1.15625 -10.222656 1.550781 -11.054688 2.34375 -11.734375 C 3.144531 -12.421875 4.273438 -12.765625 5.734375 -12.765625 C 6.554688 -12.765625 7.316406 -12.691406 8.015625 -12.546875 C 8.710938 -12.398438 9.253906 -12.242188 9.640625 -12.078125 L 9.734375 -9.515625 L 9.484375 -9.46875 C 9.085938 -10.375 8.507812 -11.09375 7.75 -11.625 C 7 -12.164062 6.175781 -12.4375 5.28125 -12.4375 C 4.425781 -12.4375 3.742188 -12.242188 3.234375 -11.859375 C 2.722656 -11.472656 2.46875 -10.960938 2.46875 -10.328125 C 2.46875 -9.804688 2.628906 -9.367188 2.953125 -9.015625 C 3.285156 -8.660156 3.722656 -8.359375 4.265625 -8.109375 C 4.804688 -7.867188 5.40625 -7.640625 6.0625 -7.421875 C 6.550781 -7.273438 7.039062 -7.113281 7.53125 -6.9375 C 8.03125 -6.757812 8.484375 -6.539062 8.890625 -6.28125 C 9.304688 -6.019531 9.644531 -5.679688 9.90625 -5.265625 C 10.164062 -4.859375 10.296875 -4.335938 10.296875 -3.703125 C 10.296875 -2.992188 10.125 -2.34375 9.78125 -1.75 C 9.4375 -1.15625 8.921875 -0.679688 8.234375 -0.328125 C 7.546875 0.0234375 6.695312 0.207031 5.6875 0.21875 Z M 5.6875 0.21875 "/></g></g></g><g fill="#000000" fill-opacity="1"><g transform="translate(94.05824, 40.574446)"><g><path d="M 0.8125 0 L 0.8125 -0.328125 C 1.195312 -0.441406 1.457031 -0.691406 1.59375 -1.078125 C 1.738281 -1.460938 1.8125 -2.171875 1.8125 -3.203125 L 1.8125 -8.984375 C 1.8125 -9.578125 1.773438 -10.019531 1.703125 -10.3125 C 1.640625 -10.601562 1.53125 -10.816406 1.375 -10.953125 C 1.226562 -11.085938 1.039062 -11.203125 0.8125 -11.296875 L 0.8125 -11.578125 L 3.578125 -12.78125 L 3.78125 -12.609375 L 3.78125 -3.203125 C 3.78125 -2.171875 3.851562 -1.460938 4 -1.078125 C 4.15625 -0.691406 4.414062 -0.441406 4.78125 -0.328125 L 4.78125 0 Z M 1.265625 -15.703125 C 1.265625 -16.109375 1.394531 -16.441406 1.65625 -16.703125 C 1.925781 -16.972656 2.253906 -17.109375 2.640625 -17.109375 C 3.046875 -17.109375 3.378906 -16.972656 3.640625 -16.703125 C 3.898438 -16.441406 4.03125 -16.109375 4.03125 -15.703125 C 4.03125 -15.335938 3.894531 -15.015625 3.625 -14.734375 C 3.351562 -14.460938 3.023438 -14.328125 2.640625 -14.328125 C 2.253906 -14.328125 1.925781 -14.460938 1.65625 -14.734375 C 1.394531 -15.015625 1.265625 -15.335938 1.265625 -15.703125 Z M 1.265625 -15.703125 "/></g></g></g><g fill="#000000" fill-opacity="1"><g transform="translate(99.722149, 40.574446)"><g><path d="M 4.75 0.25 C 3.96875 0.25 3.347656 -0.0195312 2.890625 -0.5625 C 2.441406 -1.113281 2.21875 -2.039062 2.21875 -3.34375 L 2.21875 -12.234375 L 0.609375 -12.234375 L 0.609375 -12.578125 L 3.828125 -15.6875 L 4.171875 -15.6875 L 4.171875 -12.578125 L 8 -12.578125 L 7.875 -12.234375 L 4.171875 -12.234375 L 4.171875 -3.34375 C 4.171875 -2.488281 4.332031 -1.878906 4.65625 -1.515625 C 4.988281 -1.160156 5.425781 -0.984375 5.96875 -0.984375 C 6.320312 -0.984375 6.707031 -1.078125 7.125 -1.265625 C 7.539062 -1.460938 7.957031 -1.804688 8.375 -2.296875 L 8.609375 -2.0625 C 8.066406 -1.4375 7.472656 -0.894531 6.828125 -0.4375 C 6.179688 0.0195312 5.488281 0.25 4.75 0.25 Z M 4.75 0.25 "/></g></g></g><g fill="#000000" fill-opacity="1"><g transform="translate(108.38164, 40.574446)"><g><path d="M 10.546875 0 C 10.046875 0 9.796875 -0.25 9.796875 -0.75 L 9.796875 -5.28125 C 9.546875 -4.257812 9.148438 -3.328125 8.609375 -2.484375 C 8.066406 -1.648438 7.4375 -0.984375 6.71875 -0.484375 C 6.007812 0.00390625 5.238281 0.25 4.40625 0.25 C 3.78125 0.25 3.195312 0.125 2.65625 -0.125 C 2.125 -0.375 1.691406 -0.742188 1.359375 -1.234375 C 1.035156 -1.722656 0.875 -2.328125 0.875 -3.046875 C 0.875 -3.921875 1.132812 -4.632812 1.65625 -5.1875 C 2.175781 -5.738281 2.867188 -6.191406 3.734375 -6.546875 C 4.597656 -6.898438 5.523438 -7.207031 6.515625 -7.46875 L 9.796875 -8.359375 C 9.722656 -9.578125 9.382812 -10.476562 8.78125 -11.0625 C 8.175781 -11.644531 7.335938 -11.9375 6.265625 -11.9375 C 5.515625 -11.9375 4.78125 -11.753906 4.0625 -11.390625 C 3.351562 -11.023438 2.675781 -10.457031 2.03125 -9.6875 L 1.8125 -9.890625 C 2.53125 -10.785156 3.347656 -11.488281 4.265625 -12 C 5.179688 -12.507812 6.1875 -12.765625 7.28125 -12.765625 C 8.800781 -12.765625 9.921875 -12.363281 10.640625 -11.5625 C 11.367188 -10.769531 11.734375 -9.660156 11.734375 -8.234375 L 11.734375 -3.203125 C 11.734375 -2.171875 11.800781 -1.460938 11.9375 -1.078125 C 12.082031 -0.691406 12.347656 -0.441406 12.734375 -0.328125 L 12.734375 0 Z M 2.765625 -3.75 C 2.765625 -2.925781 3.007812 -2.300781 3.5 -1.875 C 4 -1.445312 4.613281 -1.234375 5.34375 -1.234375 C 6.007812 -1.234375 6.613281 -1.421875 7.15625 -1.796875 C 7.707031 -2.171875 8.175781 -2.660156 8.5625 -3.265625 C 8.945312 -3.867188 9.25 -4.523438 9.46875 -5.234375 C 9.6875 -5.941406 9.796875 -6.625 9.796875 -7.28125 L 9.796875 -8.03125 L 6.625 -7.171875 C 6 -7.003906 5.390625 -6.78125 4.796875 -6.5 C 4.203125 -6.226562 3.710938 -5.875 3.328125 -5.4375 C 2.953125 -5 2.765625 -4.4375 2.765625 -3.75 Z M 2.765625 -3.75 "/></g></g></g></svg>