<svg xmlns="http://www.w3.org/2000/svg" xmlns:xlink="http://www.w3.org/1999/xlink" width="300" zoomAndPan="magnify" viewBox="0 0 224.87999 67.499998" height="90" preserveAspectRatio="xMidYMid meet" version="1.0"><defs><g/><clipPath id="4ef865678f"><path d="M 147.3125 9 L 200.914062 9 L 200.914062 58.09375 L 147.3125 58.09375 Z M 147.3125 9 " clip-rule="nonzero"/></clipPath></defs><g clip-path="url(#4ef865678f)"><path fill="#737373" d="M 200.757812 35.125 C 200.738281 35.105469 194.773438 29.136719 193.96875 28.332031 L 193.96875 16.132812 C 193.96875 15.527344 193.476562 15.035156 192.871094 15.035156 L 187.425781 15.035156 C 186.816406 15.035156 186.324219 15.527344 186.324219 16.132812 L 186.324219 20.6875 L 175.03125 9.394531 C 174.597656 8.960938 173.898438 8.96875 173.476562 9.394531 C 172.703125 10.171875 149.167969 33.808594 147.746094 35.234375 C 147.316406 35.664062 147.320312 36.363281 147.75 36.789062 C 148.179688 37.21875 148.875 37.21875 149.304688 36.785156 L 152.117188 33.964844 L 152.117188 56.933594 C 152.117188 57.539062 152.609375 58.03125 153.214844 58.03125 L 168.382812 58.03125 C 168.992188 58.03125 169.484375 57.539062 169.484375 56.933594 L 169.484375 40.273438 L 179.023438 40.273438 L 179.023438 56.933594 C 179.023438 57.539062 179.515625 58.03125 180.121094 58.03125 L 195.289062 58.03125 C 195.898438 58.03125 196.390625 57.539062 196.390625 56.933594 L 196.390625 33.863281 L 199.203125 36.679688 C 199.632812 37.109375 200.328125 37.109375 200.757812 36.679688 C 201.1875 36.25 201.1875 35.554688 200.757812 35.125 Z M 181.222656 55.835938 L 181.222656 39.171875 C 181.222656 38.566406 180.730469 38.074219 180.121094 38.074219 L 168.382812 38.074219 C 167.777344 38.074219 167.285156 38.566406 167.285156 39.171875 L 167.285156 55.835938 L 154.316406 55.835938 L 154.316406 31.753906 L 174.253906 11.726562 L 194.191406 31.664062 L 194.191406 55.835938 Z M 181.222656 55.835938 " fill-opacity="1" fill-rule="nonzero"/></g><g fill="#000000" fill-opacity="1"><g transform="translate(22.799314, 39.085475)"><g><path d="M 1.078125 0 L 1.078125 -0.28125 C 1.398438 -0.375 1.617188 -0.582031 1.734375 -0.90625 C 1.859375 -1.238281 1.921875 -1.832031 1.921875 -2.6875 L 1.921875 -12.15625 C 1.921875 -13.03125 1.859375 -13.625 1.734375 -13.9375 C 1.617188 -14.257812 1.398438 -14.46875 1.078125 -14.5625 L 1.078125 -14.84375 L 4.515625 -14.84375 L 4.515625 -14.5625 C 4.191406 -14.46875 3.96875 -14.257812 3.84375 -13.9375 C 3.726562 -13.625 3.671875 -13.03125 3.671875 -12.15625 L 3.671875 -1.296875 C 3.671875 -0.660156 3.988281 -0.34375 4.625 -0.34375 L 7.140625 -0.34375 C 8.160156 -0.34375 8.941406 -0.492188 9.484375 -0.796875 C 10.023438 -1.097656 10.484375 -1.644531 10.859375 -2.4375 L 11.09375 -2.390625 L 10.9375 0 Z M 1.078125 0 "/></g></g></g><g fill="#000000" fill-opacity="1"><g transform="translate(34.314264, 39.085475)"><g><path d="M 8.890625 0 C 8.460938 0 8.25 -0.210938 8.25 -0.640625 L 8.25 -4.453125 C 8.039062 -3.585938 7.707031 -2.800781 7.25 -2.09375 C 6.800781 -1.382812 6.273438 -0.820312 5.671875 -0.40625 C 5.066406 0.0078125 4.410156 0.21875 3.703125 0.21875 C 3.179688 0.21875 2.691406 0.113281 2.234375 -0.09375 C 1.785156 -0.3125 1.421875 -0.625 1.140625 -1.03125 C 0.867188 -1.445312 0.734375 -1.957031 0.734375 -2.5625 C 0.734375 -3.300781 0.953125 -3.898438 1.390625 -4.359375 C 1.835938 -4.828125 2.421875 -5.207031 3.140625 -5.5 C 3.867188 -5.800781 4.648438 -6.066406 5.484375 -6.296875 L 8.25 -7.046875 C 8.1875 -8.078125 7.898438 -8.832031 7.390625 -9.3125 C 6.890625 -9.800781 6.1875 -10.046875 5.28125 -10.046875 C 4.644531 -10.046875 4.023438 -9.894531 3.421875 -9.59375 C 2.816406 -9.289062 2.25 -8.8125 1.71875 -8.15625 L 1.53125 -8.328125 C 2.132812 -9.078125 2.820312 -9.664062 3.59375 -10.09375 C 4.363281 -10.53125 5.207031 -10.75 6.125 -10.75 C 7.414062 -10.75 8.363281 -10.410156 8.96875 -9.734375 C 9.570312 -9.066406 9.875 -8.132812 9.875 -6.9375 L 9.875 -2.6875 C 9.875 -1.832031 9.929688 -1.238281 10.046875 -0.90625 C 10.171875 -0.582031 10.398438 -0.375 10.734375 -0.28125 L 10.734375 0 Z M 2.328125 -3.15625 C 2.328125 -2.46875 2.535156 -1.941406 2.953125 -1.578125 C 3.367188 -1.210938 3.882812 -1.03125 4.5 -1.03125 C 5.0625 -1.03125 5.570312 -1.191406 6.03125 -1.515625 C 6.488281 -1.835938 6.878906 -2.25 7.203125 -2.75 C 7.535156 -3.257812 7.789062 -3.8125 7.96875 -4.40625 C 8.15625 -5 8.25 -5.570312 8.25 -6.125 L 8.25 -6.765625 L 5.578125 -6.046875 C 5.054688 -5.898438 4.539062 -5.707031 4.03125 -5.46875 C 3.53125 -5.238281 3.117188 -4.941406 2.796875 -4.578125 C 2.484375 -4.210938 2.328125 -3.738281 2.328125 -3.15625 Z M 2.328125 -3.15625 "/></g></g></g><g fill="#000000" fill-opacity="1"><g transform="translate(45.553542, 39.085475)"><g/></g></g><g fill="#000000" fill-opacity="1"><g transform="translate(50.006844, 39.085475)"><g><path d="M 9.09375 0.21875 C 7.46875 0.21875 6.054688 -0.0703125 4.859375 -0.65625 C 3.671875 -1.238281 2.75 -2.078125 2.09375 -3.171875 C 1.4375 -4.265625 1.109375 -5.582031 1.109375 -7.125 C 1.109375 -8.257812 1.3125 -9.300781 1.71875 -10.25 C 2.125 -11.207031 2.703125 -12.039062 3.453125 -12.75 C 4.210938 -13.46875 5.113281 -14.019531 6.15625 -14.40625 C 7.195312 -14.789062 8.335938 -14.984375 9.578125 -14.984375 C 10.191406 -14.984375 10.8125 -14.929688 11.4375 -14.828125 C 12.0625 -14.722656 12.632812 -14.59375 13.15625 -14.4375 C 13.6875 -14.28125 14.085938 -14.113281 14.359375 -13.9375 L 14.4375 -11.40625 L 14.234375 -11.359375 C 13.816406 -12.328125 13.128906 -13.109375 12.171875 -13.703125 C 11.222656 -14.296875 10.117188 -14.59375 8.859375 -14.59375 C 7.742188 -14.59375 6.734375 -14.34375 5.828125 -13.84375 C 4.921875 -13.351562 4.203125 -12.617188 3.671875 -11.640625 C 3.148438 -10.660156 2.890625 -9.453125 2.890625 -8.015625 C 2.890625 -7.023438 3.03125 -6.0625 3.3125 -5.125 C 3.601562 -4.195312 4.035156 -3.359375 4.609375 -2.609375 C 5.191406 -1.867188 5.90625 -1.285156 6.75 -0.859375 C 7.601562 -0.429688 8.582031 -0.21875 9.6875 -0.21875 C 10.832031 -0.21875 11.832031 -0.515625 12.6875 -1.109375 C 13.539062 -1.703125 14.175781 -2.566406 14.59375 -3.703125 L 14.828125 -3.6875 L 14.484375 -0.9375 C 13.984375 -0.664062 13.253906 -0.40625 12.296875 -0.15625 C 11.347656 0.09375 10.28125 0.21875 9.09375 0.21875 Z M 9.09375 0.21875 "/></g></g></g><g fill="#000000" fill-opacity="1"><g transform="translate(65.720622, 39.085475)"><g><path d="M 8.890625 0 C 8.460938 0 8.25 -0.210938 8.25 -0.640625 L 8.25 -4.453125 C 8.039062 -3.585938 7.707031 -2.800781 7.25 -2.09375 C 6.800781 -1.382812 6.273438 -0.820312 5.671875 -0.40625 C 5.066406 0.0078125 4.410156 0.21875 3.703125 0.21875 C 3.179688 0.21875 2.691406 0.113281 2.234375 -0.09375 C 1.785156 -0.3125 1.421875 -0.625 1.140625 -1.03125 C 0.867188 -1.445312 0.734375 -1.957031 0.734375 -2.5625 C 0.734375 -3.300781 0.953125 -3.898438 1.390625 -4.359375 C 1.835938 -4.828125 2.421875 -5.207031 3.140625 -5.5 C 3.867188 -5.800781 4.648438 -6.066406 5.484375 -6.296875 L 8.25 -7.046875 C 8.1875 -8.078125 7.898438 -8.832031 7.390625 -9.3125 C 6.890625 -9.800781 6.1875 -10.046875 5.28125 -10.046875 C 4.644531 -10.046875 4.023438 -9.894531 3.421875 -9.59375 C 2.816406 -9.289062 2.25 -8.8125 1.71875 -8.15625 L 1.53125 -8.328125 C 2.132812 -9.078125 2.820312 -9.664062 3.59375 -10.09375 C 4.363281 -10.53125 5.207031 -10.75 6.125 -10.75 C 7.414062 -10.75 8.363281 -10.410156 8.96875 -9.734375 C 9.570312 -9.066406 9.875 -8.132812 9.875 -6.9375 L 9.875 -2.6875 C 9.875 -1.832031 9.929688 -1.238281 10.046875 -0.90625 C 10.171875 -0.582031 10.398438 -0.375 10.734375 -0.28125 L 10.734375 0 Z M 2.328125 -3.15625 C 2.328125 -2.46875 2.535156 -1.941406 2.953125 -1.578125 C 3.367188 -1.210938 3.882812 -1.03125 4.5 -1.03125 C 5.0625 -1.03125 5.570312 -1.191406 6.03125 -1.515625 C 6.488281 -1.835938 6.878906 -2.25 7.203125 -2.75 C 7.535156 -3.257812 7.789062 -3.8125 7.96875 -4.40625 C 8.15625 -5 8.25 -5.570312 8.25 -6.125 L 8.25 -6.765625 L 5.578125 -6.046875 C 5.054688 -5.898438 4.539062 -5.707031 4.03125 -5.46875 C 3.53125 -5.238281 3.117188 -4.941406 2.796875 -4.578125 C 2.484375 -4.210938 2.328125 -3.738281 2.328125 -3.15625 Z M 2.328125 -3.15625 "/></g></g></g><g fill="#000000" fill-opacity="1"><g transform="translate(77.150792, 39.085475)"><g><path d="M 4.796875 0.1875 C 3.941406 0.1875 3.171875 0.0820312 2.484375 -0.125 C 1.804688 -0.332031 1.289062 -0.550781 0.9375 -0.78125 L 0.734375 -3.34375 L 0.9375 -3.390625 C 1.382812 -2.390625 1.972656 -1.601562 2.703125 -1.03125 C 3.441406 -0.457031 4.296875 -0.160156 5.265625 -0.140625 C 5.921875 -0.140625 6.460938 -0.320312 6.890625 -0.6875 C 7.328125 -1.050781 7.546875 -1.53125 7.546875 -2.125 C 7.546875 -2.632812 7.398438 -3.039062 7.109375 -3.34375 C 6.816406 -3.65625 6.4375 -3.910156 5.96875 -4.109375 C 5.5 -4.304688 4.988281 -4.492188 4.4375 -4.671875 C 3.769531 -4.878906 3.171875 -5.097656 2.640625 -5.328125 C 2.117188 -5.566406 1.707031 -5.875 1.40625 -6.25 C 1.113281 -6.632812 0.96875 -7.144531 0.96875 -7.78125 C 0.96875 -8.613281 1.300781 -9.316406 1.96875 -9.890625 C 2.644531 -10.460938 3.597656 -10.75 4.828125 -10.75 C 5.523438 -10.75 6.164062 -10.6875 6.75 -10.5625 C 7.34375 -10.445312 7.800781 -10.316406 8.125 -10.171875 L 8.203125 -8.015625 L 8 -7.96875 C 7.65625 -8.738281 7.164062 -9.347656 6.53125 -9.796875 C 5.894531 -10.242188 5.203125 -10.46875 4.453125 -10.46875 C 3.734375 -10.46875 3.15625 -10.304688 2.71875 -9.984375 C 2.289062 -9.660156 2.078125 -9.226562 2.078125 -8.6875 C 2.078125 -8.25 2.210938 -7.878906 2.484375 -7.578125 C 2.765625 -7.285156 3.132812 -7.035156 3.59375 -6.828125 C 4.050781 -6.628906 4.554688 -6.4375 5.109375 -6.25 C 5.515625 -6.125 5.925781 -5.988281 6.34375 -5.84375 C 6.757812 -5.695312 7.140625 -5.515625 7.484375 -5.296875 C 7.835938 -5.078125 8.125 -4.789062 8.34375 -4.4375 C 8.5625 -4.09375 8.671875 -3.648438 8.671875 -3.109375 C 8.671875 -2.515625 8.523438 -1.96875 8.234375 -1.46875 C 7.941406 -0.96875 7.503906 -0.566406 6.921875 -0.265625 C 6.347656 0.0234375 5.640625 0.175781 4.796875 0.1875 Z M 4.796875 0.1875 "/></g></g></g><g fill="#000000" fill-opacity="1"><g transform="translate(86.587543, 39.085475)"><g><path d="M 0.671875 0 L 0.671875 -0.28125 C 1.003906 -0.375 1.226562 -0.582031 1.34375 -0.90625 C 1.46875 -1.238281 1.53125 -1.832031 1.53125 -2.6875 L 1.53125 -7.5625 C 1.53125 -8.0625 1.5 -8.429688 1.4375 -8.671875 C 1.382812 -8.921875 1.289062 -9.101562 1.15625 -9.21875 C 1.03125 -9.332031 0.867188 -9.429688 0.671875 -9.515625 L 0.671875 -9.75 L 3.015625 -10.765625 L 3.1875 -10.625 L 3.1875 -2.6875 C 3.1875 -1.832031 3.25 -1.238281 3.375 -0.90625 C 3.5 -0.582031 3.71875 -0.375 4.03125 -0.28125 L 4.03125 0 Z M 1.0625 -13.234375 C 1.0625 -13.566406 1.171875 -13.847656 1.390625 -14.078125 C 1.617188 -14.304688 1.894531 -14.421875 2.21875 -14.421875 C 2.5625 -14.421875 2.84375 -14.304688 3.0625 -14.078125 C 3.28125 -13.847656 3.390625 -13.566406 3.390625 -13.234375 C 3.390625 -12.921875 3.273438 -12.644531 3.046875 -12.40625 C 2.828125 -12.175781 2.550781 -12.0625 2.21875 -12.0625 C 1.894531 -12.0625 1.617188 -12.175781 1.390625 -12.40625 C 1.171875 -12.644531 1.0625 -12.921875 1.0625 -13.234375 Z M 1.0625 -13.234375 "/></g></g></g><g fill="#000000" fill-opacity="1"><g transform="translate(91.358935, 39.085475)"><g><path d="M 4 0.21875 C 3.34375 0.21875 2.820312 -0.0078125 2.4375 -0.46875 C 2.050781 -0.9375 1.859375 -1.71875 1.859375 -2.8125 L 1.859375 -10.296875 L 0.515625 -10.296875 L 0.515625 -10.59375 L 3.21875 -13.203125 L 3.515625 -13.203125 L 3.515625 -10.59375 L 6.75 -10.59375 L 6.640625 -10.296875 L 3.515625 -10.296875 L 3.515625 -2.8125 C 3.515625 -2.09375 3.648438 -1.582031 3.921875 -1.28125 C 4.203125 -0.976562 4.570312 -0.828125 5.03125 -0.828125 C 5.320312 -0.828125 5.644531 -0.90625 6 -1.0625 C 6.351562 -1.226562 6.707031 -1.515625 7.0625 -1.921875 L 7.25 -1.734375 C 6.800781 -1.210938 6.300781 -0.753906 5.75 -0.359375 C 5.207031 0.0234375 4.625 0.21875 4 0.21875 Z M 4 0.21875 "/></g></g></g><g fill="#000000" fill-opacity="1"><g transform="translate(98.653858, 39.085475)"><g><path d="M 8.890625 0 C 8.460938 0 8.25 -0.210938 8.25 -0.640625 L 8.25 -4.453125 C 8.039062 -3.585938 7.707031 -2.800781 7.25 -2.09375 C 6.800781 -1.382812 6.273438 -0.820312 5.671875 -0.40625 C 5.066406 0.0078125 4.410156 0.21875 3.703125 0.21875 C 3.179688 0.21875 2.691406 0.113281 2.234375 -0.09375 C 1.785156 -0.3125 1.421875 -0.625 1.140625 -1.03125 C 0.867188 -1.445312 0.734375 -1.957031 0.734375 -2.5625 C 0.734375 -3.300781 0.953125 -3.898438 1.390625 -4.359375 C 1.835938 -4.828125 2.421875 -5.207031 3.140625 -5.5 C 3.867188 -5.800781 4.648438 -6.066406 5.484375 -6.296875 L 8.25 -7.046875 C 8.1875 -8.078125 7.898438 -8.832031 7.390625 -9.3125 C 6.890625 -9.800781 6.1875 -10.046875 5.28125 -10.046875 C 4.644531 -10.046875 4.023438 -9.894531 3.421875 -9.59375 C 2.816406 -9.289062 2.25 -8.8125 1.71875 -8.15625 L 1.53125 -8.328125 C 2.132812 -9.078125 2.820312 -9.664062 3.59375 -10.09375 C 4.363281 -10.53125 5.207031 -10.75 6.125 -10.75 C 7.414062 -10.75 8.363281 -10.410156 8.96875 -9.734375 C 9.570312 -9.066406 9.875 -8.132812 9.875 -6.9375 L 9.875 -2.6875 C 9.875 -1.832031 9.929688 -1.238281 10.046875 -0.90625 C 10.171875 -0.582031 10.398438 -0.375 10.734375 -0.28125 L 10.734375 0 Z M 2.328125 -3.15625 C 2.328125 -2.46875 2.535156 -1.941406 2.953125 -1.578125 C 3.367188 -1.210938 3.882812 -1.03125 4.5 -1.03125 C 5.0625 -1.03125 5.570312 -1.191406 6.03125 -1.515625 C 6.488281 -1.835938 6.878906 -2.25 7.203125 -2.75 C 7.535156 -3.257812 7.789062 -3.8125 7.96875 -4.40625 C 8.15625 -5 8.25 -5.570312 8.25 -6.125 L 8.25 -6.765625 L 5.578125 -6.046875 C 5.054688 -5.898438 4.539062 -5.707031 4.03125 -5.46875 C 3.53125 -5.238281 3.117188 -4.941406 2.796875 -4.578125 C 2.484375 -4.210938 2.328125 -3.738281 2.328125 -3.15625 Z M 2.328125 -3.15625 "/></g></g></g></svg>